<svg width="207" height="30" viewBox="0 0 207 30" fill="none" xmlns="http://www.w3.org/2000/svg">
<path d="M23.2165 19.8657C23.2165 21.621 22.7648 23.1826 21.8613 24.5507C20.9579 25.8929 19.6673 26.9513 17.9895 27.7256C16.3375 28.5 14.337 28.8872 11.9881 28.8872C9.66498 28.8872 7.6387 28.5 5.90927 27.7256C4.20565 26.9254 2.86341 25.8026 1.88253 24.3571C0.901663 22.9116 0.33379 21.208 0.178915 19.2463H6.14158C6.21902 20.795 6.73527 22.0211 7.69033 22.9245C8.6712 23.828 10.0651 24.2797 11.8719 24.2797C12.8786 24.2797 13.7562 24.1377 14.5048 23.8538C15.2792 23.5698 15.8858 23.1568 16.3246 22.6148C16.7634 22.0727 16.9828 21.4403 16.9828 20.7176C16.9828 19.8399 16.6601 19.143 16.0148 18.6268C15.3695 18.0847 14.4532 17.6975 13.2658 17.4652L8.69701 16.5747C7.6387 16.394 6.65783 16.0971 5.7544 15.6841C4.85096 15.2711 4.06368 14.7549 3.39256 14.1354C2.72144 13.5159 2.19228 12.7673 1.8051 11.8897C1.41791 11.0121 1.22432 10.0054 1.22432 8.86966C1.22432 7.21767 1.66313 5.74636 2.54075 4.45574C3.44419 3.16512 4.67027 2.15844 6.21902 1.43569C7.79358 0.71294 9.58754 0.351566 11.6009 0.351566C13.6917 0.351566 15.5502 0.738753 17.1764 1.51313C18.8026 2.2875 20.119 3.38452 21.1257 4.80421C22.1324 6.19808 22.6873 7.86298 22.7906 9.79891H16.8279C16.7763 8.81804 16.5182 7.96623 16.0535 7.24348C15.6147 6.49492 15.0211 5.92705 14.2725 5.53986C13.5239 5.12686 12.6592 4.92036 11.6783 4.92036C10.7233 4.92036 9.91019 5.08814 9.23907 5.42371C8.59376 5.73345 8.09042 6.15936 7.72905 6.70142C7.36767 7.21767 7.18698 7.81135 7.18698 8.48248C7.18698 9.10197 7.35477 9.61822 7.69033 10.0312C8.0517 10.4442 8.51632 10.7798 9.0842 11.0379C9.65207 11.2702 10.2716 11.4509 10.9427 11.58L15.7051 12.5479C18.1573 13.0384 20.0158 13.8773 21.2806 15.0646C22.5712 16.2262 23.2165 17.8266 23.2165 19.8657ZM39.3836 29.0808C37.3703 29.0808 35.4989 28.7194 33.7694 27.9967C32.0658 27.2739 30.5687 26.2672 29.2781 24.9766C27.9875 23.6602 26.9808 22.1243 26.258 20.3691C25.5353 18.588 25.1739 16.6521 25.1739 14.5613C25.1739 12.4705 25.5353 10.5475 26.258 8.79223C26.9808 7.03698 27.9875 5.51405 29.2781 4.22343C30.5687 2.93281 32.0658 1.92612 33.7694 1.20338C35.4989 0.480629 37.3703 0.119255 39.3836 0.119255C41.397 0.119255 43.2684 0.480629 44.9978 1.20338C46.7273 1.92612 48.2373 2.93281 49.5279 4.22343C50.8443 5.51405 51.8639 7.03698 52.5867 8.79223C53.3094 10.5475 53.6708 12.4705 53.6708 14.5613C53.6708 16.6521 53.3094 18.588 52.5867 20.3691C51.8639 22.1243 50.8443 23.6602 49.5279 24.9766C48.2373 26.2672 46.7273 27.2739 44.9978 27.9967C43.2684 28.7194 41.397 29.0808 39.3836 29.0808ZM39.3836 23.815C40.6484 23.815 41.7842 23.5827 42.7909 23.1181C43.8234 22.6277 44.6881 21.9566 45.385 21.1047C46.1078 20.2529 46.6498 19.2721 47.0112 18.1621C47.3984 17.0264 47.592 15.8261 47.592 14.5613C47.592 13.2965 47.3984 12.1091 47.0112 10.9992C46.6498 9.88925 46.1078 8.92129 45.385 8.09529C44.6881 7.24348 43.8234 6.58527 42.7909 6.12064C41.7842 5.63021 40.6484 5.38499 39.3836 5.38499C38.1188 5.38499 36.9831 5.63021 35.9764 6.12064C34.9697 6.58527 34.105 7.24348 33.3822 8.09529C32.6853 8.92129 32.1432 9.88925 31.7561 10.9992C31.3947 12.1091 31.214 13.2965 31.214 14.5613C31.214 15.8261 31.3947 17.0264 31.7561 18.1621C32.1432 19.2721 32.6853 20.2529 33.3822 21.1047C34.105 21.9566 34.9697 22.6277 35.9764 23.1181C36.9831 23.5827 38.1188 23.815 39.3836 23.815ZM75.695 28.5H57.7296V0.700034H63.6148V23.1955H75.695V28.5ZM90.0128 29.0808C87.9994 29.0808 86.128 28.7194 84.3986 27.9967C82.6949 27.2739 81.1978 26.2672 79.9072 24.9766C78.6166 23.6602 77.6099 22.1243 76.8871 20.3691C76.1644 18.588 75.803 16.6521 75.803 14.5613C75.803 12.4705 76.1644 10.5475 76.8871 8.79223C77.6099 7.03698 78.6166 5.51405 79.9072 4.22343C81.1978 2.93281 82.6949 1.92612 84.3986 1.20338C86.128 0.480629 87.9994 0.119255 90.0128 0.119255C92.0261 0.119255 93.8975 0.480629 95.627 1.20338C97.3564 1.92612 98.8664 2.93281 100.157 4.22343C101.473 5.51405 102.493 7.03698 103.216 8.79223C103.939 10.5475 104.3 12.4705 104.3 14.5613C104.3 16.6521 103.939 18.588 103.216 20.3691C102.493 22.1243 101.473 23.6602 100.157 24.9766C98.8664 26.2672 97.3564 27.2739 95.627 27.9967C93.8975 28.7194 92.0261 29.0808 90.0128 29.0808ZM90.0128 23.815C91.2776 23.815 92.4133 23.5827 93.42 23.1181C94.4525 22.6277 95.3172 21.9566 96.0141 21.1047C96.7369 20.2529 97.2789 19.2721 97.6403 18.1621C98.0275 17.0264 98.2211 15.8261 98.2211 14.5613C98.2211 13.2965 98.0275 12.1091 97.6403 10.9992C97.2789 9.88925 96.7369 8.92129 96.0141 8.09529C95.3172 7.24348 94.4525 6.58527 93.42 6.12064C92.4133 5.63021 91.2776 5.38499 90.0128 5.38499C88.7479 5.38499 87.6122 5.63021 86.6055 6.12064C85.5988 6.58527 84.7341 7.24348 84.0114 8.09529C83.3144 8.92129 82.7724 9.88925 82.3852 10.9992C82.0238 12.1091 81.8431 13.2965 81.8431 14.5613C81.8431 15.8261 82.0238 17.0264 82.3852 18.1621C82.7724 19.2721 83.3144 20.2529 84.0114 21.1047C84.7341 21.9566 85.5988 22.6277 86.6055 23.1181C87.6122 23.5827 88.7479 23.815 90.0128 23.815ZM118.619 19.4398H114.244V28.5H108.359V0.700034H118.619C120.891 0.700034 122.839 1.0485 124.466 1.74544C126.118 2.44237 127.382 3.47487 128.26 4.84293C129.164 6.21098 129.615 7.9146 129.615 9.95378C129.615 11.9672 129.164 13.6837 128.26 15.1034C127.382 16.523 126.118 17.6072 124.466 18.3557C122.839 19.0785 120.891 19.4398 118.619 19.4398ZM118.58 5.65602H114.244V14.4839H118.58C120.232 14.4839 121.51 14.0838 122.414 13.2836C123.317 12.4576 123.769 11.3606 123.769 9.9925C123.769 8.62444 123.317 7.56614 122.414 6.81758C121.51 6.0432 120.232 5.65602 118.58 5.65602ZM136.683 17.8524H148.995L150.544 22.5373H134.979L136.683 17.8524ZM150.273 28.5L142.839 7.12732L135.25 28.5H129.326L139.78 0.700034H146.208L156.584 28.5H150.273ZM170.018 28.5H164.132V6.00448H155.382V0.700034H178.807V6.00448H170.018V28.5ZM188.203 28.5H182.317V0.700034H188.203V11.6574H200.244V0.700034H206.129V28.5H200.244V16.7295H188.203V28.5Z" fill="#F7F9F9"/>
</svg>
